<svg width="27" height="26" viewBox="0 0 27 26" fill="none" xmlns="http://www.w3.org/2000/svg">
<path d="M13.5 4.58483V23.6019M8.1875 8.38824H5.375M9.125 12.1916H5.375M26 18.8476V3.54523C26 2.02387 24.775 0.895522 23.2875 1.0223H23.2125C20.5875 1.25051 16.6 2.60706 14.375 4.027L14.1625 4.16645C13.8 4.39466 13.2 4.39466 12.8375 4.16645L12.525 3.97628C10.3 2.56902 6.325 1.22515 3.7 1.00962C2.2125 0.882844 1 2.02387 1 3.53255V18.8476C1 20.0647 1.975 21.2057 3.175 21.3579L3.5375 21.4086C6.25 21.7762 10.4375 23.1708 12.8375 24.502L12.8875 24.5274C13.225 24.7175 13.7625 24.7175 14.0875 24.5274C16.4875 23.1835 20.6875 21.7762 23.4125 21.4086L23.825 21.3579C25.025 21.2057 26 20.0647 26 18.8476Z" stroke="black" stroke-width="1.5" stroke-linecap="round" stroke-linejoin="round"/>
</svg>
