<svg width="16" height="22" viewBox="0 0 16 22" fill="none" xmlns="http://www.w3.org/2000/svg">
<path d="M7.815 9.96533C7.715 9.95533 7.595 9.95533 7.485 9.96533C6.3372 9.92636 5.24964 9.44217 4.45263 8.61529C3.65562 7.78841 3.21174 6.68378 3.215 5.53533C3.215 3.08533 5.195 1.09533 7.655 1.09533C8.23741 1.08482 8.81619 1.18914 9.35829 1.40231C9.90039 1.61548 10.3952 1.93335 10.8144 2.33774C11.2337 2.74214 11.5692 3.22516 11.8018 3.75922C12.0344 4.29328 12.1595 4.86792 12.17 5.45033C12.1805 6.03274 12.0762 6.61152 11.863 7.15362C11.6498 7.69572 11.332 8.19053 10.9276 8.60978C10.5232 9.02904 10.0402 9.36454 9.50611 9.59712C8.97205 9.82971 8.39741 9.95483 7.815 9.96533ZM2.815 13.6553C0.395 15.2753 0.395 17.9153 2.815 19.5253C5.565 21.3653 10.075 21.3653 12.825 19.5253C15.245 17.9053 15.245 15.2653 12.825 13.6553C10.085 11.8253 5.575 11.8253 2.815 13.6553Z" stroke="black" stroke-width="2" stroke-linecap="round" stroke-linejoin="round"/>
</svg>
